<svg xmlns="http://www.w3.org/2000/svg" xmlns:xlink="http://www.w3.org/1999/xlink"><symbol id="icon-arrow-down"><path d="M7 19.901L1.197 13.99M7 19.9l5.797-5.687M7 19.901L7.18.93" stroke="#fff"/></symbol><symbol id="icon-arrow-right"><path d="M1 9l4-4-4-4" stroke="#fff"/></symbol><symbol id="icon-cross"><path d="M23 23L1 1m0 22L23 1 1 23z" stroke="#fff" stroke-opacity=".3" stroke-linecap="round" stroke-linejoin="round"/></symbol><symbol id="icon-fb"><rect x=".5" y=".5" width="17" height="17" rx="3.5" stroke="#fff"/><path class="inner" d="M10.774 8.864H9.36v5.616h-2.1V8.864H6V7.136h1.26V6.095c.002-1.515.614-2.415 2.35-2.415h1.43v1.728h-.96c-.676 0-.72.26-.72.744v.984h1.68l-.266 1.728z" fill="#fff"/></symbol><symbol id="icon-insta"><rect x=".5" y=".5" width="17" height="17" rx="3.5" stroke="#fff"/><circle cx="9" cy="9" r="3.46" stroke="#fff"/><circle cx="14.04" cy="3.96" r="1.08" fill="#fff"/></symbol><symbol id="icon-mouse"><rect x="1.209" y=".35" width="35.582" height="55.3" rx="17.791" fill="#240000" fill-opacity=".3" stroke="#fff" stroke-width=".7"/><path d="M19 9.465v9.465" stroke="#fff" stroke-width=".7"/></symbol><symbol id="icon-vk"><rect x=".5" y=".5" width="17" height="17" rx="3.5" stroke="#fff"/><path d="M13.21 10.475c.87.842 1.05 1.253 1.08 1.304.358.624-.398.673-.398.673l-1.449.022s-.313.064-.722-.231c-.543-.388-1.284-1.4-1.682-1.269-.404.133-.276 1.195-.276 1.195s.004.13-.088.234c-.1.11-.296.068-.296.068H8.96s-1.546.006-2.808-1.367C4.779 9.607 3.63 6.808 3.63 6.808s-.07-.177.005-.271c.086-.107.32-.105.32-.105h1.55s.144.02.249.101c.088.066.135.19.135.19s.187.522.52 1.123c.647 1.17.949 1.427 1.169 1.3.32-.183.223-1.654.223-1.654s.006-.535-.161-.773c-.13-.186-.374-.24-.481-.255-.088-.01.055-.223.241-.317.279-.142.773-.152 1.354-.145.454.005.625-.002.625-.002.534.135.353.658.353 1.907 0 .401-.07.965.207 1.15.12.083.546.095 1.272-1.196.345-.612.618-1.188.618-1.188s.058-.13.145-.184c.09-.057.211-.057.211-.057l1.632.008s.49-.064.569.17c.083.242-.2.667-.865 1.597-1.096 1.527-1.218 1.385-.31 2.268z" fill="#fff"/></symbol><symbol id="icon-watsapp"><path fill-rule="evenodd" clip-rule="evenodd" d="M8.727 5.568c-.085-.412-.251-.451-.402-.486A9.51 9.51 0 007.92 5a.763.763 0 00-.617.178c-.239.19-.892.638-1.107 1.762-.214 1.122.339 2.353.414 2.526.078.17.982 2.81 2.958 4.135 1.643 1.101 2.036 1.02 2.43 1.057.397.035 1.36-.313 1.637-.813.278-.499.365-.955.331-1.061-.034-.106-.164-.19-.355-.345-.189-.155-1.124-.904-1.305-1.018-.179-.113-.313-.177-.497.023-.185.2-.69.638-.842.767-.153.128-.279.124-.47-.03-.189-.155-.824-.525-1.484-1.458-.514-.725-.797-1.552-.877-1.805-.08-.251.054-.354.182-.449.115-.083.263-.226.395-.34.13-.113.183-.2.284-.339.098-.138.089-.279.059-.403-.03-.125-.227-1.331-.329-1.818z" fill="#fff"/><path d="M3.081 15.756l.474.158.089-.264-.179-.214-.384.32zM2 19l-.474-.158-.28.837.862-.191L2 19zm4.065-.904l.219-.45-.157-.076-.17.038.108.488zM18.5 10a8.5 8.5 0 01-8.5 8.5v1a9.5 9.5 0 009.5-9.5h-1zM10 1.5a8.5 8.5 0 018.5 8.5h1A9.5 9.5 0 0010 .5v1zM1.5 10A8.5 8.5 0 0110 1.5v-1A9.5 9.5 0 00.5 10h1zm1.965 5.436A8.463 8.463 0 011.5 10h-1c0 2.31.825 4.43 2.197 6.076l.768-.64zm-.99 3.722l1.08-3.244-.948-.316-1.081 3.244.948.316zm3.481-1.55l-4.064.904.216.976 4.065-.904-.217-.976zM10 18.5a8.464 8.464 0 01-3.716-.853l-.438.899A9.463 9.463 0 0010 19.5v-1z" fill="#fff"/></symbol></svg>